<svg width="167" height="28" viewBox="0 0 167 28" fill="none" xmlns="http://www.w3.org/2000/svg">
  <path d="M13.9442 0C20.5955 0 26.159 4.6755 27.5523 10.9315C27.5831 11.0697 27.4775 11.2 27.3364 11.2H25.3701C25.2678 11.2 25.1787 11.1298 25.1523 11.0305C23.9214 6.39925 19.9325 2.89863 15.0598 2.41052V3.696C15.0598 3.81971 14.9599 3.92 14.8367 3.92H13.0518C12.9286 3.92 12.8287 3.81971 12.8287 3.696V2.3998C6.88714 2.93736 2.23108 7.95073 2.23108 14.056C2.23108 20.1613 6.88714 25.1745 12.8287 25.7121V24.304C12.8287 24.1803 12.9286 24.08 13.0518 24.08H14.8367C14.9599 24.08 15.0598 24.1803 15.0598 24.304V25.7015C19.9709 25.2095 23.9844 21.6573 25.181 16.9716C25.2066 16.8713 25.2962 16.8 25.3993 16.8H27.3364C27.4775 16.8 27.5831 16.9303 27.5523 17.0685C26.159 23.3245 20.5955 28 13.9442 28C6.24304 28 0 21.732 0 14C0 6.26801 6.24304 0 13.9442 0Z" fill="#F0B100"/>
  <path d="M28 14C28 14.866 27.3008 15.568 26.4382 15.568C25.5757 15.568 24.8765 14.866 24.8765 14C24.8765 13.134 25.5757 12.432 26.4382 12.432C27.3008 12.432 28 13.134 28 14Z" fill="#F0B100"/>
  <path d="M13.2606 21.728C13.1378 21.728 13.0373 21.6882 12.9592 21.6087C12.8811 21.5291 12.842 21.4268 12.842 21.3018V20.1254C11.9826 20.0117 11.2626 19.7901 10.6822 19.4605C10.113 19.1309 9.68329 18.7331 9.39309 18.2671C9.10289 17.7897 8.94663 17.2896 8.9243 16.7668C8.9243 16.6758 8.95779 16.5963 9.02476 16.5281C9.10289 16.4485 9.19218 16.4087 9.29263 16.4087H11.4022C11.5584 16.4087 11.6756 16.4372 11.7538 16.494C11.8319 16.5508 11.91 16.6247 11.9881 16.7156C12.0774 16.8861 12.2002 17.0509 12.3565 17.21C12.5239 17.3692 12.736 17.4999 12.9927 17.6022C13.2606 17.6931 13.5898 17.7386 13.9805 17.7386C14.6279 17.7386 15.1134 17.6363 15.4371 17.4317C15.7719 17.2271 15.9393 16.9486 15.9393 16.5963C15.9393 16.3462 15.85 16.1416 15.6715 15.9825C15.4929 15.812 15.2027 15.6643 14.8009 15.5393C14.4102 15.4029 13.8856 15.2665 13.2271 15.1301C12.3788 14.9482 11.6533 14.7152 11.0506 14.4311C10.459 14.1356 10.007 13.7548 9.69445 13.2888C9.38193 12.8114 9.22567 12.2204 9.22567 11.5157C9.22567 10.6064 9.54377 9.83356 10.18 9.19707C10.8273 8.56057 11.7147 8.16277 12.842 8.00364V6.81022C12.842 6.6852 12.8811 6.5829 12.9592 6.50334C13.0373 6.42378 13.1378 6.384 13.2606 6.384H14.6502C14.7618 6.384 14.8567 6.42378 14.9348 6.50334C15.0241 6.5829 15.0687 6.6852 15.0687 6.81022V8.03774C15.8389 8.17413 16.4863 8.4185 17.0108 8.77084C17.5354 9.12319 17.9317 9.52099 18.1995 9.96427C18.4786 10.4075 18.6237 10.8338 18.6348 11.2429C18.6348 11.3339 18.6014 11.4191 18.5344 11.4987C18.4674 11.5669 18.3837 11.601 18.2833 11.601H16.0733C15.9505 11.601 15.8445 11.5782 15.7552 11.5328C15.6659 11.4873 15.5877 11.4134 15.5208 11.3111C15.4538 11.0611 15.2752 10.8451 14.985 10.6633C14.6948 10.4701 14.3209 10.3734 13.8633 10.3734C13.3833 10.3734 13.0038 10.4644 12.7248 10.6462C12.4458 10.8167 12.3063 11.0838 12.3063 11.4475C12.3063 11.6748 12.3788 11.8737 12.5239 12.0442C12.6802 12.2147 12.9369 12.3625 13.294 12.4875C13.6512 12.6125 14.1367 12.7432 14.7506 12.8796C15.7663 13.0728 16.5867 13.3172 17.2117 13.6127C17.8368 13.8969 18.2944 14.272 18.5846 14.738C18.8748 15.1926 19.0199 15.7666 19.0199 16.4599C19.0199 17.1305 18.8525 17.7215 18.5177 18.233C18.194 18.7444 17.7363 19.1593 17.1448 19.4775C16.5532 19.7958 15.8612 20.0061 15.0687 20.1084V21.3018C15.0687 21.4268 15.0241 21.5291 14.9348 21.6087C14.8567 21.6882 14.7618 21.728 14.6502 21.728H13.2606Z" fill="#F0B100"/>
  <path d="M46.38 18.3C46.38 19.38 46.02 20.1867 45.3 20.72C44.9533 20.9733 44.5933 21.1733 44.22 21.32C43.86 21.4533 43.5067 21.52 43.16 21.52H38.8C38.4533 21.52 38.0933 21.4533 37.72 21.32C37.36 21.1733 37.0067 20.9733 36.66 20.72C36.3133 20.4533 36.0467 20.1267 35.86 19.74C35.6733 19.34 35.58 18.86 35.58 18.3V8.8C35.58 8.26667 35.6733 7.8 35.86 7.4C36.0467 6.98667 36.3133 6.65333 36.66 6.4H36.64C36.9867 6.17333 37.3467 5.98667 37.72 5.84C38.0933 5.69333 38.4533 5.62 38.8 5.62H43.16C43.5067 5.62 43.8667 5.69333 44.24 5.84C44.6133 5.98667 44.9733 6.17333 45.32 6.4H45.3C45.6467 6.65333 45.9133 6.98667 46.1 7.4C46.2867 7.8 46.38 8.26667 46.38 8.8V10.18C46.38 10.82 45.98 11.14 45.18 11.14C44.3933 11.14 44 10.82 44 10.18V8.98C44 8.64667 43.9 8.34 43.7 8.06C43.5 7.78 43.1533 7.64 42.66 7.64H39.3C38.8067 7.64 38.46 7.78 38.26 8.06C38.06 8.34 37.96 8.64667 37.96 8.98V18.14C37.96 18.4867 38.06 18.8 38.26 19.08C38.46 19.36 38.8067 19.5 39.3 19.5H42.66C43.1533 19.5 43.5 19.36 43.7 19.08C43.9 18.8 44 18.4867 44 18.14V16.98C44 16.3533 44.3933 16.04 45.18 16.04C45.98 16.04 46.38 16.3533 46.38 16.98V18.3Z" fill="#FAFAFA"/>
  <path d="M56.8319 5.62C57.1785 5.62 57.5385 5.69333 57.9119 5.84C58.2852 5.98667 58.6452 6.17333 58.9919 6.4H58.9719C59.3185 6.65333 59.5852 6.98667 59.7719 7.4C59.9585 7.8 60.0519 8.26667 60.0519 8.8V18.3C60.0519 19.38 59.6919 20.1867 58.9719 20.72C58.6252 20.9733 58.2652 21.1733 57.8919 21.32C57.5319 21.4533 57.1785 21.52 56.8319 21.52H52.4719C52.1252 21.52 51.7652 21.4533 51.3919 21.32C51.0319 21.1733 50.6785 20.9733 50.3319 20.72C49.9852 20.4533 49.7185 20.1267 49.5319 19.74C49.3452 19.34 49.2519 18.86 49.2519 18.3V8.8C49.2519 8.26667 49.3452 7.8 49.5319 7.4C49.7185 6.98667 49.9852 6.65333 50.3319 6.4H50.3119C50.6585 6.17333 51.0185 5.98667 51.3919 5.84C51.7652 5.69333 52.1252 5.62 52.4719 5.62H56.8319ZM56.3319 19.5C56.8252 19.5 57.1719 19.36 57.3719 19.08C57.5719 18.8 57.6719 18.4867 57.6719 18.14V8.98C57.6719 8.64667 57.5719 8.34 57.3719 8.06C57.1719 7.78 56.8252 7.64 56.3319 7.64H52.9719C52.4785 7.64 52.1319 7.78 51.9319 8.06C51.7319 8.34 51.6319 8.64667 51.6319 8.98V18.14C51.6319 18.4867 51.7319 18.8 51.9319 19.08C52.1319 19.36 52.4785 19.5 52.9719 19.5H56.3319Z" fill="#FAFAFA"/>
  <path d="M71.9405 6.48C71.9405 5.84 72.3338 5.52 73.1205 5.52C73.9071 5.52 74.3005 5.84 74.3005 6.48V20.28C74.3005 20.7467 74.0538 21.0867 73.5605 21.3H73.5805C73.3671 21.3933 73.1405 21.4667 72.9005 21.52C72.6605 21.5733 72.4271 21.6 72.2005 21.6C72.0271 21.6 71.8471 21.58 71.6605 21.54C71.4738 21.5133 71.2938 21.4667 71.1205 21.4C70.9605 21.32 70.8071 21.22 70.6605 21.1C70.5271 20.9667 70.4205 20.8067 70.3405 20.62L66.0005 9.8L65.4605 9.86V20.66C65.4605 21.3 65.0605 21.62 64.2605 21.62C63.4738 21.62 63.0805 21.3 63.0805 20.66V6.88C63.0805 6.33333 63.3205 5.96667 63.8005 5.78C64.2405 5.60667 64.7071 5.52 65.2005 5.52C65.5471 5.52 65.8938 5.59333 66.2405 5.74C66.6005 5.87333 66.8738 6.13333 67.0605 6.52L71.3805 17.36L71.9405 17.3V6.48Z" fill="#FAFAFA"/>
  <path d="M82.6197 20.7C82.6197 21.34 82.2197 21.66 81.4197 21.66C80.633 21.66 80.2397 21.34 80.2397 20.7V7.64H76.7397C76.2597 7.64 76.0064 7.3 75.9797 6.62C75.9797 5.95333 76.233 5.62 76.7397 5.62H86.1197C86.6264 5.62 86.8664 5.95333 86.8397 6.62C86.8397 7.3 86.5997 7.64 86.1197 7.64H82.6197V20.7Z" fill="#FAFAFA"/>
  <path d="M94.2873 14.92H92.7473C92.5207 14.92 92.3407 14.8333 92.2073 14.66C92.0873 14.4733 92.0273 14.2267 92.0273 13.92C92.0273 13.24 92.3073 12.9 92.8673 12.9H95.2073C95.7007 12.9 96.0473 12.76 96.2473 12.48C96.4473 12.2 96.5473 11.8933 96.5473 11.56V8.98C96.5473 8.64667 96.4473 8.34 96.2473 8.06C96.0473 7.78 95.7007 7.64 95.2073 7.64H90.9873V20.68C90.9873 21.32 90.594 21.64 89.8073 21.64C89.0207 21.64 88.6273 21.32 88.6273 20.68V6.82C88.6273 6.34 88.7473 6.02 88.9873 5.86C89.2407 5.7 89.5407 5.62 89.8873 5.62H95.7073C96.054 5.62 96.414 5.69333 96.7873 5.84C97.1607 5.98667 97.5207 6.17333 97.8673 6.4H97.8473C98.194 6.65333 98.4607 6.98667 98.6473 7.4C98.834 7.8 98.9273 8.26667 98.9273 8.8V11.72C98.9273 12.8 98.5673 13.6067 97.8473 14.14C97.7007 14.2467 97.5407 14.3467 97.3673 14.44C97.2073 14.5333 97.0407 14.6267 96.8673 14.72L100.067 20C100.107 20.0667 100.147 20.1533 100.187 20.26C100.227 20.3667 100.247 20.4533 100.247 20.52C100.247 20.84 100.021 21.1467 99.5673 21.44V21.42C99.2607 21.6067 99.0007 21.7 98.7873 21.7C98.4807 21.7 98.234 21.5467 98.0473 21.24L98.0673 21.26L94.2873 14.92Z" fill="#FAFAFA"/>
  <path d="M109.664 5.62C110.011 5.62 110.371 5.69333 110.744 5.84C111.117 5.98667 111.477 6.17333 111.824 6.4H111.804C112.151 6.65333 112.417 6.98667 112.604 7.4C112.791 7.8 112.884 8.26667 112.884 8.8V18.3C112.884 19.38 112.524 20.1867 111.804 20.72C111.457 20.9733 111.097 21.1733 110.724 21.32C110.364 21.4533 110.011 21.52 109.664 21.52H105.304C104.957 21.52 104.597 21.4533 104.224 21.32C103.864 21.1733 103.511 20.9733 103.164 20.72C102.817 20.4533 102.551 20.1267 102.364 19.74C102.177 19.34 102.084 18.86 102.084 18.3V8.8C102.084 8.26667 102.177 7.8 102.364 7.4C102.551 6.98667 102.817 6.65333 103.164 6.4H103.144C103.491 6.17333 103.851 5.98667 104.224 5.84C104.597 5.69333 104.957 5.62 105.304 5.62H109.664ZM109.164 19.5C109.657 19.5 110.004 19.36 110.204 19.08C110.404 18.8 110.504 18.4867 110.504 18.14V8.98C110.504 8.64667 110.404 8.34 110.204 8.06C110.004 7.78 109.657 7.64 109.164 7.64H105.804C105.311 7.64 104.964 7.78 104.764 8.06C104.564 8.34 104.464 8.64667 104.464 8.98V18.14C104.464 18.4867 104.564 18.8 104.764 19.08C104.964 19.36 105.311 19.5 105.804 19.5H109.164Z" fill="#FAFAFA"/>
  <path d="M117.173 21.52C116.679 21.52 116.346 21.3933 116.173 21.14C115.999 20.8867 115.912 20.6067 115.912 20.3V6.48C115.912 5.84 116.299 5.52 117.073 5.52C117.873 5.52 118.272 5.84 118.272 6.48V19.5H124.952C125.432 19.5 125.673 19.8267 125.673 20.48C125.699 21.1733 125.459 21.52 124.952 21.52H117.173Z" fill="#FAFAFA"/>
  <path d="M129.974 20.66C129.974 21.3 129.574 21.62 128.774 21.62C127.987 21.62 127.594 21.3 127.594 20.66V6.48C127.594 5.84 127.987 5.52 128.774 5.52C129.574 5.52 129.974 5.84 129.974 6.48V20.66Z" fill="#FAFAFA"/>
  <path d="M132.958 7.64C132.491 7.64 132.245 7.3 132.218 6.62C132.218 5.95333 132.465 5.62 132.958 5.62H141.738C142.178 5.62 142.518 5.69333 142.758 5.84C142.998 5.97333 143.131 6.16 143.158 6.4C143.171 6.62667 143.165 6.84667 143.138 7.06C143.125 7.26 143.078 7.41333 142.998 7.52L135.118 19.5H142.358C142.851 19.5 143.098 19.8267 143.098 20.48C143.125 21.1733 142.878 21.52 142.358 21.52H133.398C132.518 21.52 132.045 21.2533 131.978 20.72C131.951 20.4933 131.951 20.2867 131.978 20.1C132.005 19.9 132.058 19.7467 132.138 19.64C132.378 19.2667 132.625 18.88 132.878 18.48C133.145 18.08 133.438 17.64 133.758 17.16C134.078 16.68 134.431 16.14 134.818 15.54C135.218 14.94 135.671 14.26 136.178 13.5C136.685 12.7267 137.251 11.86 137.878 10.9C138.518 9.94 139.238 8.85333 140.038 7.64H132.958Z" fill="#FAFAFA"/>
  <path d="M144.97 7.64C144.503 7.64 144.257 7.3 144.23 6.62C144.23 5.95333 144.477 5.62 144.97 5.62H153.75C154.19 5.62 154.53 5.69333 154.77 5.84C155.01 5.97333 155.143 6.16 155.17 6.4C155.183 6.62667 155.177 6.84667 155.15 7.06C155.137 7.26 155.09 7.41333 155.01 7.52L147.13 19.5H154.37C154.863 19.5 155.11 19.8267 155.11 20.48C155.137 21.1733 154.89 21.52 154.37 21.52H145.41C144.53 21.52 144.057 21.2533 143.99 20.72C143.963 20.4933 143.963 20.2867 143.99 20.1C144.017 19.9 144.07 19.7467 144.15 19.64C144.39 19.2667 144.637 18.88 144.89 18.48C145.157 18.08 145.45 17.64 145.77 17.16C146.09 16.68 146.443 16.14 146.83 15.54C147.23 14.94 147.683 14.26 148.19 13.5C148.697 12.7267 149.263 11.86 149.89 10.9C150.53 9.94 151.25 8.85333 152.05 7.64H144.97Z" fill="#FAFAFA"/>
  <path d="M158.482 21.52C157.988 21.52 157.655 21.3933 157.482 21.14C157.308 20.8867 157.222 20.6067 157.222 20.3V6.82C157.222 6.51333 157.308 6.24 157.482 6C157.655 5.74667 157.988 5.62 158.482 5.62H165.442C165.935 5.62 166.195 5.95333 166.222 6.62C166.248 7.3 165.988 7.64 165.442 7.64H159.582V19.5H165.802C166.295 19.5 166.548 19.8267 166.562 20.48C166.588 21.1733 166.335 21.52 165.802 21.52H158.482ZM164.702 13.24C164.702 13.7067 164.535 14.1 164.202 14.42C163.882 14.74 163.488 14.9 163.022 14.9C162.568 14.9 162.182 14.74 161.862 14.42C161.542 14.1 161.382 13.7067 161.382 13.24C161.382 12.7733 161.542 12.38 161.862 12.06C162.182 11.74 162.568 11.58 163.022 11.58C163.488 11.58 163.882 11.74 164.202 12.06C164.535 12.38 164.702 12.7733 164.702 13.24Z" fill="#FAFAFA"/>
</svg>
