<svg width="28" height="28" viewBox="0 0 28 28" fill="none" xmlns="http://www.w3.org/2000/svg">
  <path d="M13.9442 0C20.5955 0 26.159 4.6755 27.5523 10.9315C27.5831 11.0697 27.4775 11.2 27.3364 11.2H25.3701C25.2678 11.2 25.1787 11.1298 25.1523 11.0305C23.9214 6.39925 19.9325 2.89863 15.0598 2.41052V3.696C15.0598 3.81971 14.9599 3.92 14.8367 3.92H13.0518C12.9286 3.92 12.8287 3.81971 12.8287 3.696V2.3998C6.88714 2.93736 2.23108 7.95073 2.23108 14.056C2.23108 20.1613 6.88714 25.1745 12.8287 25.7121V24.304C12.8287 24.1803 12.9286 24.08 13.0518 24.08H14.8367C14.9599 24.08 15.0598 24.1803 15.0598 24.304V25.7015C19.9709 25.2095 23.9844 21.6573 25.181 16.9716C25.2066 16.8713 25.2962 16.8 25.3993 16.8H27.3364C27.4775 16.8 27.5831 16.9303 27.5523 17.0685C26.159 23.3245 20.5955 28 13.9442 28C6.24304 28 0 21.732 0 14C0 6.26801 6.24304 0 13.9442 0Z" fill="#F0B100"/>
  <path d="M28 14C28 14.866 27.3008 15.568 26.4382 15.568C25.5757 15.568 24.8765 14.866 24.8765 14C24.8765 13.134 25.5757 12.432 26.4382 12.432C27.3008 12.432 28 13.134 28 14Z" fill="#F0B100"/>
  <path d="M13.2606 21.728C13.1378 21.728 13.0373 21.6882 12.9592 21.6087C12.8811 21.5291 12.842 21.4268 12.842 21.3018V20.1254C11.9826 20.0117 11.2626 19.7901 10.6822 19.4605C10.113 19.1309 9.68329 18.7331 9.39309 18.2671C9.10289 17.7897 8.94663 17.2896 8.9243 16.7668C8.9243 16.6758 8.95779 16.5963 9.02476 16.5281C9.10289 16.4485 9.19218 16.4087 9.29263 16.4087H11.4022C11.5584 16.4087 11.6756 16.4372 11.7538 16.494C11.8319 16.5508 11.91 16.6247 11.9881 16.7156C12.0774 16.8861 12.2002 17.0509 12.3565 17.21C12.5239 17.3692 12.736 17.4999 12.9927 17.6022C13.2606 17.6931 13.5898 17.7386 13.9805 17.7386C14.6279 17.7386 15.1134 17.6363 15.4371 17.4317C15.7719 17.2271 15.9393 16.9486 15.9393 16.5963C15.9393 16.3462 15.85 16.1416 15.6715 15.9825C15.4929 15.812 15.2027 15.6643 14.8009 15.5393C14.4102 15.4029 13.8856 15.2665 13.2271 15.1301C12.3788 14.9482 11.6533 14.7152 11.0506 14.4311C10.459 14.1356 10.007 13.7548 9.69445 13.2888C9.38193 12.8114 9.22566 12.2204 9.22566 11.5157C9.22566 10.6064 9.54377 9.83356 10.18 9.19707C10.8273 8.56057 11.7147 8.16277 12.842 8.00364V6.81022C12.842 6.6852 12.8811 6.5829 12.9592 6.50334C13.0373 6.42378 13.1378 6.384 13.2606 6.384H14.6502C14.7618 6.384 14.8567 6.42378 14.9348 6.50334C15.0241 6.5829 15.0687 6.6852 15.0687 6.81022V8.03774C15.8389 8.17413 16.4863 8.4185 17.0108 8.77084C17.5354 9.12319 17.9317 9.521 18.1995 9.96427C18.4786 10.4075 18.6237 10.8338 18.6348 11.2429C18.6348 11.3339 18.6014 11.4191 18.5344 11.4987C18.4674 11.5669 18.3837 11.601 18.2833 11.601H16.0733C15.9505 11.601 15.8445 11.5782 15.7552 11.5328C15.6659 11.4873 15.5877 11.4134 15.5208 11.3111C15.4538 11.0611 15.2752 10.8451 14.985 10.6633C14.6948 10.4701 14.3209 10.3734 13.8633 10.3734C13.3833 10.3734 13.0038 10.4644 12.7248 10.6462C12.4458 10.8167 12.3063 11.0838 12.3063 11.4475C12.3063 11.6748 12.3788 11.8737 12.5239 12.0442C12.6802 12.2147 12.9369 12.3625 13.294 12.4875C13.6512 12.6125 14.1367 12.7432 14.7506 12.8796C15.7663 13.0728 16.5867 13.3172 17.2117 13.6127C17.8368 13.8969 18.2944 14.272 18.5846 14.738C18.8748 15.1926 19.0199 15.7666 19.0199 16.4599C19.0199 17.1305 18.8525 17.7215 18.5176 18.233C18.194 18.7444 17.7363 19.1593 17.1448 19.4775C16.5532 19.7958 15.8612 20.0061 15.0687 20.1084V21.3018C15.0687 21.4268 15.0241 21.5291 14.9348 21.6087C14.8567 21.6882 14.7618 21.728 14.6502 21.728H13.2606Z" fill="#F0B100"/>
</svg>
