<svg width="36" height="36" viewBox="0 0 36 36" fill="none" xmlns="http://www.w3.org/2000/svg">
  <rect x="1" y="1" width="34" height="34" rx="5" fill="#EFB100"/>
  <rect x="1" y="1" width="34" height="34" rx="5" stroke="#E17100" stroke-width="2"/>
  <path d="M17.3981 6.08439C17.3981 5.72972 17.6127 5.54306 18.0421 5.52439C18.4901 5.50572 18.7141 5.69239 18.7141 6.08439V7.34439H20.0861C20.5714 7.34439 21.0661 7.44706 21.5701 7.65239C22.0927 7.85772 22.5967 8.11906 23.0821 8.43639H23.0541C23.5394 8.79106 23.9127 9.24839 24.1741 9.80839C24.4354 10.3684 24.5661 11.0404 24.5661 11.8244V13.4484C24.5661 14.3444 24.0061 14.7924 22.8861 14.7924C21.8034 14.7924 21.2621 14.3444 21.2621 13.4484V12.0484C21.2621 11.5631 21.1127 11.1244 20.8141 10.7324C20.5341 10.3404 20.0487 10.1444 19.3581 10.1444H18.7141V16.2204H20.0861C20.5714 16.2204 21.0661 16.3231 21.5701 16.5284C22.0927 16.7337 22.5967 17.0044 23.0821 17.3404H23.0541C23.5394 17.6764 23.9127 18.1337 24.1741 18.7124C24.4354 19.2911 24.5661 19.9537 24.5661 20.7004V23.9764C24.5661 25.5071 24.0621 26.6364 23.0541 27.3644C22.0461 28.0924 21.0567 28.4564 20.0861 28.4564H18.7141V29.8844C18.7141 30.3137 18.4901 30.5097 18.0421 30.4724C17.6127 30.4724 17.3981 30.2764 17.3981 29.8844V28.4564H15.9141C15.4287 28.4564 14.9247 28.3631 14.4021 28.1764C13.8981 27.9897 13.4034 27.7191 12.9181 27.3644C11.9287 26.6364 11.4341 25.5071 11.4341 23.9764V22.6884C11.4341 21.8111 11.9754 21.3724 13.0581 21.3724C14.1781 21.3724 14.7381 21.8111 14.7381 22.6884V23.7524C14.7381 24.2191 14.8781 24.6484 15.1581 25.0404C15.4381 25.4324 15.9234 25.6284 16.6141 25.6284H17.3981V19.0204H15.9141C14.9434 19.0204 13.9447 18.6657 12.9181 17.9564C11.9287 17.1911 11.4341 16.0617 11.4341 14.5684V11.8244C11.4341 10.2937 11.9287 9.16439 12.9181 8.43639H12.8901C13.3754 8.11906 13.8794 7.85772 14.4021 7.65239C14.9247 7.44706 15.4287 7.34439 15.9141 7.34439H17.3981V6.08439ZM18.7141 19.0204V25.6284H19.3581C20.0487 25.6284 20.5341 25.4324 20.8141 25.0404C21.1127 24.6484 21.2621 24.2191 21.2621 23.7524V20.9244C21.2621 20.4577 21.1127 20.0284 20.8141 19.6364C20.5341 19.2257 20.0487 19.0204 19.3581 19.0204H18.7141ZM14.7381 14.3444C14.7381 14.8297 14.8781 15.2684 15.1581 15.6604C15.4381 16.0337 15.9234 16.2204 16.6141 16.2204H17.3981V10.1444H16.6141C15.9234 10.1444 15.4381 10.3404 15.1581 10.7324C14.8781 11.1244 14.7381 11.5631 14.7381 12.0484V14.3444Z" fill="#E17100"/>
</svg>
