<svg width="223" height="36" viewBox="0 0 223 36" fill="none" xmlns="http://www.w3.org/2000/svg">
  <rect x="1" y="1" width="34" height="34" rx="5" fill="#EFB100"/>
  <rect x="1" y="1" width="34" height="34" rx="5" stroke="#E17100" stroke-width="2"/>
  <path d="M17.3981 6.08439C17.3981 5.72972 17.6127 5.54306 18.0421 5.52439C18.4901 5.50572 18.7141 5.69239 18.7141 6.08439V7.34439H20.0861C20.5714 7.34439 21.0661 7.44706 21.5701 7.65239C22.0927 7.85772 22.5967 8.11906 23.0821 8.43639H23.0541C23.5394 8.79106 23.9127 9.24839 24.1741 9.80839C24.4354 10.3684 24.5661 11.0404 24.5661 11.8244V13.4484C24.5661 14.3444 24.0061 14.7924 22.8861 14.7924C21.8034 14.7924 21.2621 14.3444 21.2621 13.4484V12.0484C21.2621 11.5631 21.1127 11.1244 20.8141 10.7324C20.5341 10.3404 20.0487 10.1444 19.3581 10.1444H18.7141V16.2204H20.0861C20.5714 16.2204 21.0661 16.3231 21.5701 16.5284C22.0927 16.7337 22.5967 17.0044 23.0821 17.3404H23.0541C23.5394 17.6764 23.9127 18.1337 24.1741 18.7124C24.4354 19.2911 24.5661 19.9537 24.5661 20.7004V23.9764C24.5661 25.5071 24.0621 26.6364 23.0541 27.3644C22.0461 28.0924 21.0567 28.4564 20.0861 28.4564H18.7141V29.8844C18.7141 30.3137 18.4901 30.5097 18.0421 30.4724C17.6127 30.4724 17.3981 30.2764 17.3981 29.8844V28.4564H15.9141C15.4287 28.4564 14.9247 28.3631 14.4021 28.1764C13.8981 27.9897 13.4034 27.7191 12.9181 27.3644C11.9287 26.6364 11.4341 25.5071 11.4341 23.9764V22.6884C11.4341 21.8111 11.9754 21.3724 13.0581 21.3724C14.1781 21.3724 14.7381 21.8111 14.7381 22.6884V23.7524C14.7381 24.2191 14.8781 24.6484 15.1581 25.0404C15.4381 25.4324 15.9234 25.6284 16.6141 25.6284H17.3981V19.0204H15.9141C14.9434 19.0204 13.9447 18.6657 12.9181 17.9564C11.9287 17.1911 11.4341 16.0617 11.4341 14.5684V11.8244C11.4341 10.2937 11.9287 9.16439 12.9181 8.43639H12.8901C13.3754 8.11906 13.8794 7.85772 14.4021 7.65239C14.9247 7.44706 15.4287 7.34439 15.9141 7.34439H17.3981V6.08439ZM18.7141 19.0204V25.6284H19.3581C20.0487 25.6284 20.5341 25.4324 20.8141 25.0404C21.1127 24.6484 21.2621 24.2191 21.2621 23.7524V20.9244C21.2621 20.4577 21.1127 20.0284 20.8141 19.6364C20.5341 19.2257 20.0487 19.0204 19.3581 19.0204H18.7141ZM14.7381 14.3444C14.7381 14.8297 14.8781 15.2684 15.1581 15.6604C15.4381 16.0337 15.9234 16.2204 16.6141 16.2204H17.3981V10.1444H16.6141C15.9234 10.1444 15.4381 10.3404 15.1581 10.7324C14.8781 11.1244 14.7381 11.5631 14.7381 12.0484V14.3444Z" fill="#E17100"/>
  <path d="M58.856 23.16C58.856 24.456 58.424 25.424 57.56 26.064C57.144 26.368 56.712 26.608 56.264 26.784C55.832 26.944 55.408 27.024 54.992 27.024H49.76C49.344 27.024 48.912 26.944 48.464 26.784C48.032 26.608 47.608 26.368 47.192 26.064C46.776 25.744 46.456 25.352 46.232 24.888C46.008 24.408 45.896 23.832 45.896 23.16V11.76C45.896 11.12 46.008 10.56 46.232 10.08C46.456 9.584 46.776 9.184 47.192 8.88H47.168C47.584 8.608 48.016 8.384 48.464 8.208C48.912 8.032 49.344 7.944 49.76 7.944H54.992C55.408 7.944 55.84 8.032 56.288 8.208C56.736 8.384 57.168 8.608 57.584 8.88H57.56C57.976 9.184 58.296 9.584 58.52 10.08C58.744 10.56 58.856 11.12 58.856 11.76V13.416C58.856 14.184 58.376 14.568 57.416 14.568C56.472 14.568 56 14.184 56 13.416V11.976C56 11.576 55.88 11.208 55.64 10.872C55.4 10.536 54.984 10.368 54.392 10.368H50.36C49.768 10.368 49.352 10.536 49.112 10.872C48.872 11.208 48.752 11.576 48.752 11.976V22.968C48.752 23.384 48.872 23.76 49.112 24.096C49.352 24.432 49.768 24.6 50.36 24.6H54.392C54.984 24.6 55.4 24.432 55.64 24.096C55.88 23.76 56 23.384 56 22.968V21.576C56 20.824 56.472 20.448 57.416 20.448C58.376 20.448 58.856 20.824 58.856 21.576V23.16ZM73.3183 7.944C73.7343 7.944 74.1663 8.032 74.6143 8.208C75.0623 8.384 75.4943 8.608 75.9103 8.88H75.8863C76.3023 9.184 76.6223 9.584 76.8463 10.08C77.0703 10.56 77.1823 11.12 77.1823 11.76V23.16C77.1823 24.456 76.7503 25.424 75.8863 26.064C75.4703 26.368 75.0383 26.608 74.5903 26.784C74.1583 26.944 73.7343 27.024 73.3183 27.024H68.0863C67.6703 27.024 67.2383 26.944 66.7903 26.784C66.3583 26.608 65.9343 26.368 65.5183 26.064C65.1023 25.744 64.7823 25.352 64.5583 24.888C64.3343 24.408 64.2223 23.832 64.2223 23.16V11.76C64.2223 11.12 64.3343 10.56 64.5583 10.08C64.7823 9.584 65.1023 9.184 65.5183 8.88H65.4943C65.9103 8.608 66.3423 8.384 66.7903 8.208C67.2383 8.032 67.6703 7.944 68.0863 7.944H73.3183ZM72.7183 24.6C73.3103 24.6 73.7263 24.432 73.9663 24.096C74.2063 23.76 74.3263 23.384 74.3263 22.968V11.976C74.3263 11.576 74.2063 11.208 73.9663 10.872C73.7263 10.536 73.3103 10.368 72.7183 10.368H68.6863C68.0943 10.368 67.6783 10.536 67.4383 10.872C67.1983 11.208 67.0783 11.576 67.0783 11.976V22.968C67.0783 23.384 67.1983 23.76 67.4383 24.096C67.6783 24.432 68.0943 24.6 68.6863 24.6H72.7183ZM93.3686 8.976C93.3686 8.208 93.8406 7.824 94.7846 7.824C95.7286 7.824 96.2006 8.208 96.2006 8.976V25.536C96.2006 26.096 95.9046 26.504 95.3126 26.76H95.3366C95.0806 26.872 94.8086 26.96 94.5206 27.024C94.2326 27.088 93.9526 27.12 93.6806 27.12C93.4726 27.12 93.2566 27.096 93.0326 27.048C92.8086 27.016 92.5926 26.96 92.3846 26.88C92.1926 26.784 92.0086 26.664 91.8326 26.52C91.6726 26.36 91.5446 26.168 91.4486 25.944L86.2406 12.96L85.5926 13.032V25.992C85.5926 26.76 85.1126 27.144 84.1526 27.144C83.2086 27.144 82.7366 26.76 82.7366 25.992V9.456C82.7366 8.8 83.0246 8.36 83.6006 8.136C84.1286 7.928 84.6886 7.824 85.2806 7.824C85.6966 7.824 86.1126 7.912 86.5286 8.088C86.9606 8.248 87.2886 8.56 87.5126 9.024L92.6966 22.032L93.3686 21.96V8.976ZM108.104 26.04C108.104 26.808 107.624 27.192 106.664 27.192C105.72 27.192 105.248 26.808 105.248 26.04V10.368H101.048C100.472 10.368 100.168 9.96 100.136 9.144C100.136 8.344 100.44 7.944 101.048 7.944H112.304C112.912 7.944 113.2 8.344 113.168 9.144C113.168 9.96 112.88 10.368 112.304 10.368H108.104V26.04ZM124.025 19.104H122.177C121.905 19.104 121.689 19 121.529 18.792C121.385 18.568 121.313 18.272 121.313 17.904C121.313 17.088 121.649 16.68 122.321 16.68H125.129C125.721 16.68 126.137 16.512 126.377 16.176C126.617 15.84 126.737 15.472 126.737 15.072V11.976C126.737 11.576 126.617 11.208 126.377 10.872C126.137 10.536 125.721 10.368 125.129 10.368H120.065V26.016C120.065 26.784 119.593 27.168 118.649 27.168C117.705 27.168 117.233 26.784 117.233 26.016V9.384C117.233 8.808 117.377 8.424 117.665 8.232C117.969 8.04 118.329 7.944 118.745 7.944H125.729C126.145 7.944 126.577 8.032 127.025 8.208C127.473 8.384 127.905 8.608 128.321 8.88H128.297C128.713 9.184 129.033 9.584 129.257 10.08C129.481 10.56 129.593 11.12 129.593 11.76V15.264C129.593 16.56 129.161 17.528 128.297 18.168C128.121 18.296 127.929 18.416 127.721 18.528C127.529 18.64 127.329 18.752 127.121 18.864L130.961 25.2C131.009 25.28 131.057 25.384 131.105 25.512C131.153 25.64 131.177 25.744 131.177 25.824C131.177 26.208 130.905 26.576 130.361 26.928V26.904C129.993 27.128 129.681 27.24 129.425 27.24C129.057 27.24 128.761 27.056 128.537 26.688L128.561 26.712L124.025 19.104ZM144.397 7.944C144.813 7.944 145.245 8.032 145.693 8.208C146.141 8.384 146.573 8.608 146.989 8.88H146.965C147.381 9.184 147.701 9.584 147.925 10.08C148.149 10.56 148.261 11.12 148.261 11.76V23.16C148.261 24.456 147.829 25.424 146.965 26.064C146.549 26.368 146.117 26.608 145.669 26.784C145.237 26.944 144.813 27.024 144.397 27.024H139.165C138.749 27.024 138.317 26.944 137.869 26.784C137.437 26.608 137.013 26.368 136.597 26.064C136.181 25.744 135.861 25.352 135.637 24.888C135.413 24.408 135.301 23.832 135.301 23.16V11.76C135.301 11.12 135.413 10.56 135.637 10.08C135.861 9.584 136.181 9.184 136.597 8.88H136.573C136.989 8.608 137.421 8.384 137.869 8.208C138.317 8.032 138.749 7.944 139.165 7.944H144.397ZM143.797 24.6C144.389 24.6 144.805 24.432 145.045 24.096C145.285 23.76 145.405 23.384 145.405 22.968V11.976C145.405 11.576 145.285 11.208 145.045 10.872C144.805 10.536 144.389 10.368 143.797 10.368H139.765C139.173 10.368 138.757 10.536 138.517 10.872C138.277 11.208 138.157 11.576 138.157 11.976V22.968C138.157 23.384 138.277 23.76 138.517 24.096C138.757 24.432 139.173 24.6 139.765 24.6H143.797ZM155.327 27.024C154.735 27.024 154.335 26.872 154.127 26.568C153.919 26.264 153.815 25.928 153.815 25.56V8.976C153.815 8.208 154.279 7.824 155.207 7.824C156.167 7.824 156.647 8.208 156.647 8.976V24.6H164.663C165.239 24.6 165.527 24.992 165.527 25.776C165.559 26.608 165.271 27.024 164.663 27.024H155.327ZM172.609 25.992C172.609 26.76 172.129 27.144 171.169 27.144C170.225 27.144 169.753 26.76 169.753 25.992V8.976C169.753 8.208 170.225 7.824 171.169 7.824C172.129 7.824 172.609 8.208 172.609 8.976V25.992ZM178.11 10.368C177.55 10.368 177.254 9.96 177.222 9.144C177.222 8.344 177.518 7.944 178.11 7.944H188.646C189.174 7.944 189.582 8.032 189.87 8.208C190.158 8.368 190.318 8.592 190.35 8.88C190.366 9.152 190.358 9.416 190.326 9.672C190.31 9.912 190.254 10.096 190.158 10.224L180.702 24.6H189.39C189.982 24.6 190.278 24.992 190.278 25.776C190.31 26.608 190.014 27.024 189.39 27.024H178.638C177.582 27.024 177.014 26.704 176.934 26.064C176.902 25.792 176.902 25.544 176.934 25.32C176.966 25.08 177.03 24.896 177.126 24.768C177.414 24.32 177.71 23.856 178.014 23.376C178.334 22.896 178.686 22.368 179.07 21.792C179.454 21.216 179.878 20.568 180.342 19.848C180.822 19.128 181.366 18.312 181.974 17.4C182.582 16.472 183.262 15.432 184.014 14.28C184.782 13.128 185.646 11.824 186.606 10.368H178.11ZM194.444 10.368C193.884 10.368 193.588 9.96 193.556 9.144C193.556 8.344 193.852 7.944 194.444 7.944H204.98C205.508 7.944 205.916 8.032 206.204 8.208C206.492 8.368 206.652 8.592 206.684 8.88C206.7 9.152 206.692 9.416 206.66 9.672C206.644 9.912 206.588 10.096 206.492 10.224L197.036 24.6H205.724C206.316 24.6 206.612 24.992 206.612 25.776C206.644 26.608 206.348 27.024 205.724 27.024H194.972C193.916 27.024 193.348 26.704 193.268 26.064C193.236 25.792 193.236 25.544 193.268 25.32C193.3 25.08 193.364 24.896 193.46 24.768C193.748 24.32 194.044 23.856 194.348 23.376C194.668 22.896 195.02 22.368 195.404 21.792C195.788 21.216 196.212 20.568 196.676 19.848C197.156 19.128 197.7 18.312 198.308 17.4C198.916 16.472 199.596 15.432 200.348 14.28C201.116 13.128 201.98 11.824 202.94 10.368H194.444ZM212.578 27.024C211.986 27.024 211.586 26.872 211.378 26.568C211.17 26.264 211.066 25.928 211.066 25.56V9.384C211.066 9.016 211.17 8.688 211.378 8.4C211.586 8.096 211.986 7.944 212.578 7.944H220.93C221.522 7.944 221.834 8.344 221.866 9.144C221.898 9.96 221.586 10.368 220.93 10.368H213.898V24.6H221.362C221.954 24.6 222.258 24.992 222.274 25.776C222.306 26.608 222.002 27.024 221.362 27.024H212.578ZM220.042 17.088C220.042 17.648 219.842 18.12 219.442 18.504C219.058 18.888 218.586 19.08 218.026 19.08C217.482 19.08 217.018 18.888 216.634 18.504C216.25 18.12 216.058 17.648 216.058 17.088C216.058 16.528 216.25 16.056 216.634 15.672C217.018 15.288 217.482 15.096 218.026 15.096C218.586 15.096 219.058 15.288 219.442 15.672C219.842 16.056 220.042 16.528 220.042 17.088Z" fill="white"/>
</svg>
